<?xml version="1.0" encoding="UTF-8"?>
<svg id="Ebene_2" data-name="Ebene 2" xmlns="http://www.w3.org/2000/svg" viewBox="0 0 726.11 182.75">
  <defs>
    <style>
      .cls-1 {
        fill: #c79312;
      }
    </style>
  </defs>
  <g id="Ebene_1-2" data-name="Ebene 1">
    <g>
      <path class="cls-1" d="M134.02,55.25c0,12.33-3.66,22.98-21.93,38.06-1.51,1.25-2.95,2.44-4.32,3.58-14.12,11.76-22.64,18.86-22.64,30.76,0,9.37,2.33,18.24,10.14,25.91h0c-10.77-4.89-27.75-18.09-27.75-33.18,0-10.88,7.1-20.37,27.1-36.33,19.29-15.05,29.09-25.28,29.09-39.4,0-3.41-.57-6.73-1.68-9.8,2.6-.39,4.47-1.67,5.43-2.73,4.26,7.21,6.56,15.28,6.56,23.12Z"/>
      <path class="cls-1" d="M29.97,135.8c.47-2.53.74-5.23.74-8.15,0-14.57-7.33-22.75-18.42-35.14l-3.24-3.58C-3.35,75.21.6,66.18.6,55.25c0-.62.2-1.35.23-1.95,2.4,12.07,3.35,22.06,15.92,35.18,15.58,16.67,18.63,24.31,18.63,31.9,0,5.37-2.25,10.74-5.41,15.42Z"/>
      <path class="cls-1" d="M97.55,173.12c0,5.65-3.78,9.63-9.18,9.63s-9.2-3.89-9.2-9.63,3.78-9.66,9.2-9.66,9.18,4.15,9.18,9.66Z"/>
      <path class="cls-1" d="M12.8,45.07c6.36,6.79,11.21,13.61,22.93,18.75l-9.67,9.17c-6.98-2.31-12.51-7.24-13.75-12.28l.49-15.64Z"/>
      <path class="cls-1" d="M64.38,65.78c13.41-2.18,23.5-8.09,32.83-14.84v13.39c-4.53,7.01-12.32,11.24-21.56,14.23l-11.28-12.78Z"/>
      <path class="cls-1" d="M45.52,64.74c-6.7,1.97-2.99,18.46,4.81,20.3,1.52-13.3,1.88-22.27-4.81-20.3Z"/>
      <path class="cls-1" d="M12.8,0v22.2s33.17,34.42,33.17,34.42c19.2-23.94,88.04-11.22,88.04-56.62-28.68,12.22-44.64,0-59.61,0S24.28,11.72,12.8,0Z"/>
    </g>
    <path class="cls-1" d="M253.96,70.5c-2.11-4.72-5.06-8.89-8.77-12.38-3.71-3.49-8.17-6.25-13.26-8.18-5.14-1.94-10.82-2.92-16.87-2.92s-11.74.98-16.87,2.92c-5.07,1.93-9.53,4.71-13.24,8.24-3.73,3.53-6.68,7.72-8.77,12.44-2.11,4.71-3.18,9.91-3.18,15.47s1.07,10.91,3.18,15.66c2.08,4.73,5.03,8.93,8.77,12.5,3.72,3.54,8.19,6.3,13.3,8.22,5.16,1.95,10.81,2.93,16.81,2.93s11.75-.98,16.88-2.93c5.09-1.92,9.57-4.68,13.32-8.19,3.75-3.5,6.69-7.67,8.75-12.39,2.06-4.73,3.1-10.04,3.1-15.8s-1.06-10.9-3.15-15.59ZM237.51,90.74c-.74,3.69-1.99,6.98-3.72,9.77-1.8,2.85-3.93,5.17-6.32,6.92-2.48,1.84-5.25,3.08-8.24,3.7-1.47.31-2.97.46-4.5.46s-3.12-.16-4.7-.48c-3.13-.63-5.89-1.78-8.46-3.52-2.5-1.74-4.58-3.96-6.2-6.6-1.62-2.63-2.68-5.63-3.15-8.9-.48-3.19-.35-6.69.4-10.4.75-3.7,1.98-6.99,3.67-9.76,1.7-2.81,3.83-5.16,6.35-6.97,2.46-1.8,5.24-3.04,8.26-3.66,2.94-.64,6.03-.64,9.18-.01,3.13.63,5.98,1.83,8.49,3.56,2.53,1.76,4.6,3.98,6.16,6.63,1.54,2.55,2.6,5.51,3.13,8.79.52,3.25.4,6.77-.35,10.47Z"/>
    <polygon class="cls-1" points="363.83 66.6 343.5 123.8 325.97 123.8 312.55 84.78 298.6 123.8 280.94 123.8 263.14 73.2 276.29 67.48 290.4 109.45 305.57 66.6 320.45 66.6 335.04 109.73 350.02 66.6 363.83 66.6"/>
    <polygon class="cls-1" points="387.28 41.08 387.28 123.8 370.52 123.8 370.52 49.2 387.28 41.08"/>
    <path class="cls-1" d="M551.45,66.6v57.2h-15.62v-10.53l-4.35,4.76c-1.37,1.5-2.95,2.76-4.71,3.75-3.6,2.03-7.6,3.05-11.89,3.05-4.62,0-8.82-.91-12.46-2.71-3.56-1.77-6.28-4.47-8.3-8.27-2.04-3.86-3.08-8.91-3.08-15.04v-24.56l16.76-6.5v27.51c0,5.48,1.08,9.4,3.29,11.99,2.28,2.67,5.48,4.03,9.52,4.03,2.56,0,4.95-.61,7.11-1.8,2.27-1.26,4.03-3.25,5.25-5.91,1.14-2.5,1.71-5.64,1.71-9.34v-27.63h16.77Z"/>
    <path class="cls-1" d="M618.85,79.24c-2.76-4.37-6.48-7.77-11.06-10.1-4.62-2.37-9.84-3.57-15.52-3.57-6.13,0-11.65,1.29-16.41,3.83-4.73,2.52-8.49,6.05-11.18,10.49-2.69,4.43-4.05,9.6-4.05,15.37s1.4,10.7,4.15,15.12c2.76,4.43,6.7,7.98,11.73,10.55,5.07,2.59,11.19,3.9,18.16,3.9,5.53,0,10.39-.8,14.43-2.4,2.92-1.15,7.38-4.37,10.55-7.24l-10.71-6.12c-1.61,1.21-2.93,1.86-4.84,2.65-2.43,1-5.41,1.5-8.85,1.5-3.67,0-6.9-.68-9.6-2.03-2.81-1.41-5-3.46-6.5-6.1-.61-1.07-1.09-2.27-1.48-3.66l-.89-3.17h46.06c.02-.15.03-.29.04-.44.07-.93.11-1.76.11-2.45,0-6.36-1.4-11.78-4.14-16.13ZM576.77,91.8l.49-2.91c.3-1.77.8-3.37,1.48-4.75,1.25-2.55,3.11-4.55,5.52-5.94,2.36-1.36,5.13-2.05,8.24-2.05s5.75.7,8.04,2.08c2.29,1.37,4.13,3.34,5.45,5.84.75,1.42,1.28,3.05,1.57,4.83l.48,2.9h-31.27Z"/>
    <path class="cls-1" d="M680.33,107.06c0,3.22-.96,6.06-2.93,8.69-2,2.67-5.11,4.86-9.24,6.51-4.26,1.71-9.66,2.57-16.03,2.57-5.03,0-10.02-.59-14.81-1.76-3.74-.91-6.92-2-9.48-3.26l4.43-10.29c2.55,1.26,5.38,2.32,8.43,3.16,4.09,1.12,8.17,1.69,12.12,1.69,4.2,0,7.01-.48,8.86-1.53,2.18-1.24,3.38-3.17,3.38-5.44,0-1.23-.44-3.51-3.39-4.89-1.55-.73-3.52-1.24-6.03-1.54-2.2-.27-4.58-.57-7.13-.91-2.44-.33-4.98-.85-7.52-1.54-2.45-.67-4.68-1.6-6.65-2.77-1.81-1.09-3.23-2.55-4.32-4.47-1.07-1.9-1.62-4.41-1.62-7.48,0-3.44.98-6.42,2.99-9.09,2.05-2.71,5.13-4.93,9.15-6.58,4.15-1.7,9.4-2.56,15.6-2.56,4.16,0,8.45.45,12.73,1.32,3.25.67,6.12,1.58,8.56,2.71l-4.5,10.24c-2.48-1.24-4.98-2.11-7.48-2.61-3.19-.64-6.25-.96-9.08-.96-4.11,0-7.05.48-8.99,1.47-3.06,1.57-3.7,3.73-3.7,5.26,0,1.28.45,3.64,3.49,5.07,1.6.76,3.55,1.31,5.94,1.7,2.15.34,4.58.69,7.24,1.04,2.5.33,5.04.82,7.52,1.48,2.35.62,4.5,1.55,6.42,2.74,1.81,1.13,3.25,2.62,4.39,4.54,1.1,1.86,1.65,4.38,1.65,7.49Z"/>
    <path class="cls-1" d="M726.11,122.54c-1.32.64-2.79,1.14-4.39,1.49-2.44.53-5.06.8-7.77.8-7.28,0-12.96-1.77-16.9-5.26-3.91-3.47-5.8-8.69-5.8-15.95v-23.35h-9.05v-11.26h9.05v-8.62l16.76-6.5v15.12h14.21v11.26h-14.21v23.01c0,3.03.83,5.43,2.48,7.12,1.66,1.72,3.87,2.6,6.55,2.6,1.88,0,3.64-.32,5.26-.93l3.81,10.47Z"/>
    <path class="cls-1" d="M477.93,127.42c-3.62,3.05-7.61,4.59-11.91,4.59-2.04,0-3.98-.4-5.77-1.18-1.83-.81-3.62-2.17-5.34-4.03l-.06-.06-3-3.01,4.08-1.16s.12-.04.17-.06l.1-.04c5.08-1.92,9.56-4.68,13.31-8.19,3.76-3.5,6.7-7.67,8.76-12.39,2.07-4.76,3.12-10.03,3.12-15.68s-1.05-11-3.12-15.73c-2.05-4.68-5-8.83-8.76-12.35-3.75-3.5-8.23-6.25-13.32-8.19-5.12-1.94-10.79-2.92-16.86-2.92s-11.65.98-16.83,2.92c-5.11,1.93-9.58,4.71-13.29,8.24-3.7,3.5-6.65,7.69-8.78,12.45-2.09,4.67-3.16,9.92-3.16,15.58s1.07,10.82,3.16,15.54c2.12,4.76,5.07,8.97,8.78,12.5,3.72,3.54,8.19,6.3,13.29,8.22,2.73,1.02,5.59,1.78,8.49,2.25l.81.13.57.59c2.85,2.92,5.31,5.28,7.52,7.23,2.95,2.63,5.79,4.72,8.45,6.23,2.59,1.47,5.32,2.56,8.13,3.25,2.8.66,5.86,1,9.08,1,8,0,14.29-2.46,19.16-7.51l-6.78-8.22ZM443.35,111.14c-1.5.31-3.01.46-4.54.46s-3.11-.16-4.68-.47c-3.09-.63-5.94-1.82-8.46-3.55-2.53-1.76-4.62-3.98-6.21-6.6-1.6-2.6-2.66-5.59-3.15-8.87-.47-3.24-.33-6.75.41-10.42.74-3.67,1.97-6.95,3.65-9.75,1.73-2.85,3.87-5.19,6.36-6.98,2.47-1.79,5.25-3.02,8.25-3.66,2.96-.63,6.05-.63,9.2,0,3.16.63,6.02,1.83,8.5,3.55,2.52,1.76,4.59,3.98,6.14,6.61,1.55,2.57,2.61,5.55,3.14,8.81.51,3.26.39,6.78-.35,10.46-.74,3.69-2,6.98-3.73,9.77h0c-1.76,2.82-3.88,5.15-6.32,6.93-2.44,1.81-5.21,3.06-8.21,3.7Z"/>
  </g>
</svg>