<?xml version="1.0" encoding="UTF-8"?>
<svg id="Ebene_2" xmlns="http://www.w3.org/2000/svg" version="1.1" viewBox="0 0 559.1 182.8">
  <!-- Generator: Adobe Illustrator 29.1.0, SVG Export Plug-In . SVG Version: 2.1.0 Build 142)  -->
  <defs>
    <style>
      .st0 {
        fill: #c79312;
      }
    </style>
  </defs>
  <path class="st0" d="M84,70.5c-2.1-4.7-5.1-8.9-8.8-12.4s-8.2-6.2-13.3-8.2c-5.1-1.9-10.8-2.9-16.9-2.9s-11.7,1-16.9,2.9c-5.1,1.9-9.5,4.7-13.2,8.2-3.7,3.5-6.7,7.7-8.8,12.4-2.1,4.7-3.2,9.9-3.2,15.5s1.1,10.9,3.2,15.7c2.1,4.7,5,8.9,8.8,12.5,3.7,3.5,8.2,6.3,13.3,8.2,5.2,1.9,10.8,2.9,16.8,2.9s11.8-1,16.9-2.9c5.1-1.9,9.6-4.7,13.3-8.2,3.8-3.5,6.7-7.7,8.8-12.4,2.1-4.7,3.1-10,3.1-15.8s-1.1-10.9-3.1-15.6h0ZM67.5,90.7c-.7,3.7-2,7-3.7,9.8-1.8,2.8-3.9,5.2-6.3,6.9-2.5,1.8-5.2,3.1-8.2,3.7-1.5.3-3,.5-4.5.5s-3.1-.2-4.7-.5c-3.1-.6-5.9-1.8-8.5-3.5-2.5-1.7-4.6-4-6.2-6.6-1.6-2.6-2.7-5.6-3.1-8.9-.5-3.2-.4-6.7.4-10.4.8-3.7,2-7,3.7-9.8,1.7-2.8,3.8-5.2,6.4-7,2.5-1.8,5.2-3,8.3-3.7,2.9-.6,6-.6,9.2,0,3.1.6,6,1.8,8.5,3.6,2.5,1.8,4.6,4,6.2,6.6,1.5,2.6,2.6,5.5,3.1,8.8.5,3.2.4,6.8-.4,10.5h0Z"/>
  <polygon class="st0" points="193.8 66.6 173.5 123.8 156 123.8 142.5 84.8 128.6 123.8 110.9 123.8 93.1 73.2 106.3 67.5 120.4 109.4 135.6 66.6 150.5 66.6 165 109.7 180 66.6 193.8 66.6"/>
  <polygon class="st0" points="217.3 41.1 217.3 123.8 200.5 123.8 200.5 49.2 217.3 41.1"/>
  <path class="st0" d="M381.5,66.6v57.2h-15.6v-10.5l-4.3,4.8c-1.4,1.5-3,2.8-4.7,3.8-3.6,2-7.6,3.1-11.9,3.1s-8.8-.9-12.5-2.7c-3.6-1.8-6.3-4.5-8.3-8.3-2-3.9-3.1-8.9-3.1-15v-24.6l16.8-6.5v27.5c0,5.5,1.1,9.4,3.3,12,2.3,2.7,5.5,4,9.5,4s5-.6,7.1-1.8c2.3-1.3,4-3.2,5.2-5.9,1.1-2.5,1.7-5.6,1.7-9.3v-27.6h16.8,0Z"/>
  <path class="st0" d="M448.8,79.2c-2.8-4.4-6.5-7.8-11.1-10.1-4.6-2.4-9.8-3.6-15.5-3.6s-11.7,1.3-16.4,3.8c-4.7,2.5-8.5,6.1-11.2,10.5-2.7,4.4-4,9.6-4,15.4s1.4,10.7,4.2,15.1c2.8,4.4,6.7,8,11.7,10.6,5.1,2.6,11.2,3.9,18.2,3.9s10.4-.8,14.4-2.4c2.9-1.2,7.4-4.4,10.5-7.2l-10.7-6.1c-1.6,1.2-2.9,1.9-4.8,2.7-2.4,1-5.4,1.5-8.8,1.5s-6.9-.7-9.6-2c-2.8-1.4-5-3.5-6.5-6.1-.6-1.1-1.1-2.3-1.5-3.7l-.9-3.2h46.1c0-.2,0-.3,0-.4,0-.9.1-1.8.1-2.4,0-6.4-1.4-11.8-4.1-16.1h0ZM406.8,91.8l.5-2.9c.3-1.8.8-3.4,1.5-4.8,1.2-2.6,3.1-4.6,5.5-5.9,2.4-1.4,5.1-2.1,8.2-2.1s5.8.7,8,2.1c2.3,1.4,4.1,3.3,5.5,5.8.8,1.4,1.3,3.1,1.6,4.8l.5,2.9h-31.3,0Z"/>
  <path class="st0" d="M510.3,107.1c0,3.2-1,6.1-2.9,8.7-2,2.7-5.1,4.9-9.2,6.5-4.3,1.7-9.7,2.6-16,2.6s-10-.6-14.8-1.8c-3.7-.9-6.9-2-9.5-3.3l4.4-10.3c2.5,1.3,5.4,2.3,8.4,3.2,4.1,1.1,8.2,1.7,12.1,1.7s7-.5,8.9-1.5c2.2-1.2,3.4-3.2,3.4-5.4s-.4-3.5-3.4-4.9c-1.5-.7-3.5-1.2-6-1.5-2.2-.3-4.6-.6-7.1-.9-2.4-.3-5-.8-7.5-1.5-2.5-.7-4.7-1.6-6.7-2.8-1.8-1.1-3.2-2.6-4.3-4.5-1.1-1.9-1.6-4.4-1.6-7.5s1-6.4,3-9.1c2-2.7,5.1-4.9,9.2-6.6,4.2-1.7,9.4-2.6,15.6-2.6s8.5.4,12.7,1.3c3.2.7,6.1,1.6,8.6,2.7l-4.5,10.2c-2.5-1.2-5-2.1-7.5-2.6-3.2-.6-6.2-1-9.1-1-4.1,0-7,.5-9,1.5-3.1,1.6-3.7,3.7-3.7,5.3s.5,3.6,3.5,5.1c1.6.8,3.5,1.3,5.9,1.7,2.2.3,4.6.7,7.2,1,2.5.3,5,.8,7.5,1.5,2.3.6,4.5,1.6,6.4,2.7,1.8,1.1,3.2,2.6,4.4,4.5,1.1,1.9,1.7,4.4,1.7,7.5h0Z"/>
  <path class="st0" d="M556.1,122.5c-1.3.6-2.8,1.1-4.4,1.5-2.4.5-5.1.8-7.8.8-7.3,0-13-1.8-16.9-5.3-3.9-3.5-5.8-8.7-5.8-15.9v-23.3h-9v-11.3h9v-8.6l16.8-6.5v15.1h14.2v11.3h-14.2v23c0,3,.8,5.4,2.5,7.1,1.7,1.7,3.9,2.6,6.5,2.6s3.6-.3,5.3-.9l3.8,10.5h0Z"/>
  <path class="st0" d="M307.9,127.4c-3.6,3.1-7.6,4.6-11.9,4.6s-4-.4-5.8-1.2c-1.8-.8-3.6-2.2-5.3-4h0c0,0-3-3.1-3-3.1l4.1-1.2s.1,0,.2,0h.1c5.1-2,9.6-4.7,13.3-8.2,3.8-3.5,6.7-7.7,8.8-12.4,2.1-4.8,3.1-10,3.1-15.7s-1-11-3.1-15.7c-2-4.7-5-8.8-8.8-12.3-3.8-3.5-8.2-6.2-13.3-8.2-5.1-1.9-10.8-2.9-16.9-2.9s-11.6,1-16.8,2.9c-5.1,1.9-9.6,4.7-13.3,8.2-3.7,3.5-6.6,7.7-8.8,12.4-2.1,4.7-3.2,9.9-3.2,15.6s1.1,10.8,3.2,15.5c2.1,4.8,5.1,9,8.8,12.5,3.7,3.5,8.2,6.3,13.3,8.2,2.7,1,5.6,1.8,8.5,2.2h.8c0,.1.6.7.6.7,2.9,2.9,5.3,5.3,7.5,7.2,3,2.6,5.8,4.7,8.5,6.2,2.6,1.5,5.3,2.6,8.1,3.2,2.8.7,5.9,1,9.1,1,8,0,14.3-2.5,19.2-7.5l-6.8-8.2h0ZM273.3,111.1c-1.5.3-3,.5-4.5.5s-3.1-.2-4.7-.5c-3.1-.6-5.9-1.8-8.5-3.6-2.5-1.8-4.6-4-6.2-6.6-1.6-2.6-2.7-5.6-3.1-8.9-.5-3.2-.3-6.8.4-10.4s2-6.9,3.6-9.8c1.7-2.8,3.9-5.2,6.4-7,2.5-1.8,5.2-3,8.2-3.7,3-.6,6-.6,9.2,0,3.2.6,6,1.8,8.5,3.5,2.5,1.8,4.6,4,6.1,6.6,1.5,2.6,2.6,5.6,3.1,8.8.5,3.3.4,6.8-.4,10.5-.7,3.7-2,7-3.7,9.8h0c-1.8,2.8-3.9,5.2-6.3,6.9-2.4,1.8-5.2,3.1-8.2,3.7h0Z"/>
</svg>