<svg width="18" height="17" viewBox="0 0 18 17" fill="none" xmlns="http://www.w3.org/2000/svg">
<path d="M3.67383 16.8809H14.3174C16.2246 16.8809 17.209 15.8965 17.209 14.0156V3.31934C17.209 1.43848 16.2246 0.454102 14.3174 0.454102H3.67383C1.77539 0.454102 0.782227 1.42969 0.782227 3.31934V14.0156C0.782227 15.8965 1.77539 16.8809 3.67383 16.8809ZM4.77246 8.66309C4.77246 8.14453 5.1416 7.78418 5.65137 7.78418H8.15625V5.2793C8.15625 4.76953 8.50781 4.40918 9.01758 4.40918C9.52734 4.40918 9.89648 4.76953 9.89648 5.2793V7.78418H12.4014C12.9023 7.78418 13.2715 8.14453 13.2715 8.66309C13.2715 9.16406 12.9023 9.52441 12.4014 9.52441H9.89648V12.0293C9.89648 12.5303 9.52734 12.8994 9.01758 12.8994C8.50781 12.8994 8.15625 12.5303 8.15625 12.0293V9.52441H5.65137C5.1416 9.52441 4.77246 9.16406 4.77246 8.66309Z" fill="#1C1C1E"/>
</svg>
