<svg width="18" height="17" viewBox="0 0 18 17" fill="none" xmlns="http://www.w3.org/2000/svg">
<path d="M3.67383 16.8809H14.3174C16.2246 16.8809 17.209 15.8965 17.209 14.0156V3.31934C17.209 1.43848 16.2246 0.454102 14.3174 0.454102H3.67383C1.77539 0.454102 0.782227 1.42969 0.782227 3.31934V14.0156C0.782227 15.8965 1.77539 16.8809 3.67383 16.8809ZM9.02637 10.1572C8.50781 10.1572 8.20898 9.86719 8.19141 9.33984L8.06836 4.9541C8.05078 4.40918 8.4375 4.03125 9.01758 4.03125C9.58008 4.03125 9.99316 4.41797 9.97559 4.96289L9.83496 9.33984C9.81738 9.87598 9.52734 10.1572 9.02637 10.1572ZM9.02637 13.1982C8.42871 13.1982 7.93652 12.7676 7.93652 12.1875C7.93652 11.6074 8.41992 11.1768 9.02637 11.1768C9.62402 11.1768 10.1074 11.6074 10.1074 12.1875C10.1074 12.7764 9.61523 13.1982 9.02637 13.1982Z" fill="#1C1C1E"/>
</svg>
